<?xml version="1.0" encoding="UTF-8" standalone="no"?>
<svg
   xmlns:dc="http://purl.org/dc/elements/1.1/"
   xmlns:cc="http://creativecommons.org/ns#"
   xmlns:rdf="http://www.w3.org/1999/02/22-rdf-syntax-ns#"
   xmlns:svg="http://www.w3.org/2000/svg"
   xmlns="http://www.w3.org/2000/svg"
   id="svg13"
   xml:space="preserve"
   enable-background="new 0 0 200 200"
   viewBox="0 0 200 200"
   y="0px"
   x="0px"
   version="1.1"><metadata
     id="metadata17"><rdf:RDF><cc:Work
         rdf:about=""><dc:format>image/svg+xml</dc:format><dc:type
           rdf:resource="http://purl.org/dc/dcmitype/StillImage" /></cc:Work></rdf:RDF></metadata><rect
     id="rect2"
     fill="#0be4eb"
     height="200"
     width="200" /><defs
     id="defs3636" /><linearGradient
     spreadMethod="pad"
     y2="30%"
     x2="-10%"
     y1="120%"
     x1="30%"
     id="3d_gradient2-logo-c1115d96-288c-468d-b1fa-04c13f5c5106"><stop
       id="stop3613"
       stop-opacity="1"
       stop-color="#ffffff"
       offset="0%" /><stop
       id="stop3615"
       stop-opacity="1"
       stop-color="#000000"
       offset="100%" /></linearGradient><linearGradient
     gradientTransform="rotate(-30)"
     spreadMethod="pad"
     y2="30%"
     x2="-10%"
     y1="120%"
     x1="30%"
     id="3d_gradient3-logo-c1115d96-288c-468d-b1fa-04c13f5c5106"><stop
       id="stop3618"
       stop-opacity="1"
       stop-color="#ffffff"
       offset="0%" /><stop
       id="stop3620"
       stop-opacity="1"
       stop-color="#cccccc"
       offset="50%" /><stop
       id="stop3622"
       stop-opacity="1"
       stop-color="#000000"
       offset="100%" /></linearGradient><path
     stroke-miterlimit="2"
     d="m 129.39998,122.28572 c 7.37143,-3.6 13.2,-8.57143 17.31429,-15.08572 4.11428,-6.51428 6.17143,-14.057141 6.17143,-22.799997 0,-8.914286 -2.22858,-16.8 -6.51429,-23.485714 -4.45714,-6.685714 -10.62857,-11.828571 -18.51428,-15.428571 -8.05715,-3.6 -17.48572,-5.485714 -28.285718,-5.485714 H 44.714271 V 66.74286 h 52.799998 c 6.857141,0 12.171431,1.542857 15.771431,4.628572 3.42857,3.085714 5.31428,7.542856 5.31428,13.028571 0,5.657142 -1.88571,9.942856 -5.31428,13.028571 -3.6,3.085716 -8.91429,4.457146 -15.771431,4.457146 H 44.714271 V 160 H 78.657127 V 128.11429 H 97.171412 L 118.94284,160 h 36.34286 z"
     style="font-style:normal;font-weight:800;font-size:72px;line-height:1;font-family:'Montserrat ExtraBold Alt1';font-variant-ligatures:none;text-align:center;text-anchor:middle;fill:#ffffff;stroke:#ffffff;stroke-width:0;stroke-linejoin:miter;stroke-miterlimit:2"
     id="path3641" /></svg>