<?xml version="1.0" encoding="utf-8"?>
<!-- Generator: Adobe Illustrator 23.0.1, SVG Export Plug-In . SVG Version: 6.00 Build 0)  -->
<svg version="1.1"
	 id="svg4" xmlns:cc="http://creativecommons.org/ns#" xmlns:dc="http://purl.org/dc/elements/1.1/" xmlns:rdf="http://www.w3.org/1999/02/22-rdf-syntax-ns#" xmlns:svg="http://www.w3.org/2000/svg"
	 xmlns="http://www.w3.org/2000/svg" xmlns:xlink="http://www.w3.org/1999/xlink" x="0px" y="0px" viewBox="0 0 528 155"
	 style="enable-background:new 0 0 528 155;" xml:space="preserve">
<style type="text/css">
	.st0{fill:#0FEBF2;}
</style>
<path id="path2" class="st0" d="M108.1,13.1c-4.5,0-8.1,1.3-10.8,3.7c-2.8,2.6-4.1,5.6-4.1,9.2c0,3.7,1.3,6.8,4.1,9.2
	c2.7,2.6,6.3,3.7,10.8,3.7c4.4,0,7.9-1.2,10.8-3.7c2.7-2.6,4.1-5.8,4.1-9.6c0-3.6-1.4-6.7-4.1-9C116.1,14.4,112.5,13.1,108.1,13.1
	L108.1,13.1z M281.1,21.1v95h24.3v-95H281.1z M7,26.4v20h39.4c5.1,0,9.1,1.2,11.8,3.5c2.6,2.3,4,5.6,4,9.7c0,4.2-1.4,7.4-4,9.7
	c-2.7,2.3-6.7,3.3-11.8,3.3H7V116h25.3V92.2h13.8L62.4,116h27.1L70.2,87.9c5.5-2.7,9.9-6.4,12.9-11.3c3.1-4.9,4.6-10.5,4.6-17
	c0-6.7-1.7-12.5-4.9-17.5c-3.3-5-7.9-8.8-13.8-11.5c-6-2.7-13.1-4.1-21.1-4.1L7,26.4z M161,45.5c-7.2,0-13.2,1-18.3,3.1
	c-5.1,2-9,4.7-11.5,8.2c-2.7,3.5-4,7.4-4,11.8c0,5.4,1.4,9.6,4.2,12.5c2.8,3.1,6.1,5.1,10,6.1c3.8,1.2,8.6,2,14.2,2.7
	c4.4,0.6,7.4,1.3,9.5,1.9c2,0.6,3.1,1.7,3.1,3.2c0,1.5-0.9,2.8-2.6,3.6c-1.7,0.8-4.5,1.2-8.3,1.2c-4.4,0-8.6-0.5-12.9-1.7
	c-4.4-1.2-8.2-2.7-11.3-4.7l-7.3,16.6c3.3,2.2,7.9,4,13.6,5.2c5.6,1.3,11.3,1.9,17.2,1.9c7.2,0,13.4-0.9,18.6-2.9
	c5.1-1.9,9.1-4.6,11.8-8.1c2.6-3.5,4-7.4,4-11.8c0-5.2-1.4-9.3-4.2-12.3s-6-5-9.7-6.1c-3.8-1-8.6-2-14.2-2.9
	c-4.6-0.6-7.8-1.3-9.7-1.9c-2-0.6-2.9-1.8-2.9-3.5c0-1.4,0.9-2.6,2.7-3.5c1.8-0.9,4.6-1.4,8.4-1.4c7.2,0,13.8,1.8,20,5.1l7.3-16.5
	c-3.3-1.8-7.6-3.3-12.4-4.4C171,46,166,45.5,161,45.5L161,45.5z M226.4,45.5c-6.4,0-12.2,1.5-17.3,4.5c-5.1,2.9-9.2,7.2-12.3,12.5
	c-3.1,5.4-4.5,11.6-4.5,18.8c0,7.2,1.4,13.6,4.5,18.9c3.1,5.4,7.2,9.6,12.3,12.5c5.1,2.9,10.9,4.4,17.3,4.4c8.2,0,14.6-2.4,19.3-7.3
	v31h24.3V46.7h-23.2v6.9C242.3,48.2,235.5,45.5,226.4,45.5L226.4,45.5z M350.3,45.5c-7.3,0-13.8,1.5-19.6,4.6
	c-5.9,3.1-10.4,7.4-13.7,12.8c-3.3,5.4-4.9,11.5-4.9,18.3c0,6.9,1.7,13.2,5,18.6c3.3,5.5,8.2,9.7,14.3,12.8
	c6.1,3.1,13.2,4.6,21.4,4.6c12.9,0,22.8-3.7,29.6-11.3l-12.8-13.3c-2.6,2.2-5,3.7-7.4,4.6c-2.4,1-5.2,1.4-8.6,1.4
	c-4.5,0-8.2-0.9-11.1-2.8c-2.9-1.9-4.9-4.7-5.9-8.3H387c0.3-3.8,0.4-5.8,0.4-6c0-7.4-1.7-13.8-5-19.2c-3.3-5.4-7.7-9.6-13.3-12.4
	C363.5,47.1,357.2,45.5,350.3,45.5L350.3,45.5z M423.8,45.5c-7.2,0-13.2,1-18.3,3.1c-5.1,2-9,4.7-11.5,8.2c-2.7,3.5-4,7.4-4,11.8
	c0,5.4,1.4,9.6,4.2,12.5c2.8,3.1,6.1,5.1,10,6.1c3.8,1.2,8.6,2,14.2,2.7c4.4,0.6,7.4,1.3,9.5,1.9c2,0.6,3.1,1.7,3.1,3.2
	c0,1.5-0.9,2.8-2.6,3.6c-1.7,0.8-4.5,1.2-8.3,1.2c-4.4,0-8.6-0.5-12.9-1.7c-4.4-1.2-8.2-2.7-11.3-4.7l-7.3,16.6
	c3.3,2.2,7.9,4,13.6,5.2c5.6,1.3,11.3,1.9,17.2,1.9c7.2,0,13.4-0.9,18.6-2.9c5.1-1.9,9.1-4.6,11.8-8.1c2.6-3.5,4-7.4,4-11.8
	c0-5.2-1.4-9.3-4.2-12.3c-2.8-2.9-6-5-9.7-6.1c-3.8-1-8.6-2-14.2-2.9c-4.6-0.6-7.8-1.3-9.7-1.9c-2-0.6-2.9-1.8-2.9-3.5
	c0-1.4,0.9-2.6,2.7-3.5c1.8-0.9,4.6-1.4,8.4-1.4c7.2,0,13.8,1.8,20,5.1l7.3-16.5c-3.3-1.8-7.6-3.3-12.4-4.4
	C433.8,46,428.8,45.5,423.8,45.5L423.8,45.5z M489.2,45.5c-7.2,0-13.2,1-18.3,3.1c-5.1,2-9,4.7-11.5,8.2c-2.7,3.5-4,7.4-4,11.8
	c0,5.4,1.4,9.6,4.2,12.5c2.8,3.1,6.1,5.1,10,6.1c3.8,1.2,8.6,2,14.2,2.7c4.4,0.6,7.4,1.3,9.5,1.9c2,0.6,3.1,1.7,3.1,3.2
	c0,1.5-0.9,2.8-2.6,3.6c-1.7,0.8-4.5,1.2-8.3,1.2c-4.4,0-8.6-0.5-12.9-1.7c-4.4-1.2-8.2-2.7-11.3-4.7L454,110
	c3.3,2.2,7.9,4,13.6,5.2c5.6,1.3,11.3,1.9,17.2,1.9c7.2,0,13.4-0.9,18.6-2.9c5.1-1.9,9.1-4.6,11.8-8.1c2.6-3.5,4-7.4,4-11.8
	c0-5.2-1.4-9.3-4.2-12.3s-6-5-9.7-6.1c-3.8-1-8.6-2-14.2-2.9c-4.6-0.6-7.8-1.3-9.7-1.9c-2-0.6-2.9-1.8-2.9-3.5
	c0-1.4,0.9-2.6,2.7-3.5c1.8-0.9,4.6-1.4,8.4-1.4c7.2,0,13.8,1.8,20,5.1l7.3-16.5c-3.3-1.8-7.6-3.3-12.4-4.4
	C499.2,46,494.2,45.5,489.2,45.5L489.2,45.5z M96,46.7V116h24.3V46.7H96z M350.4,62.8c3.7,0,6.8,1.2,9.3,3.2
	c2.6,2.2,4.1,5.1,4.9,8.7h-28.4c0.6-3.6,2.2-6.5,4.7-8.7C343.5,63.9,346.6,62.8,350.4,62.8L350.4,62.8z M231.5,64.8
	c4.2,0,7.7,1.5,10.5,4.5c2.7,2.9,4.1,6.9,4.1,12c0,5.1-1.4,9.2-4.1,12.2c-2.8,2.9-6.3,4.4-10.5,4.4c-4.4,0-7.8-1.4-10.5-4.4
	c-2.8-2.9-4.1-7-4.1-12.2c0-5.1,1.3-9.1,4.1-12C223.7,66.4,227.2,64.8,231.5,64.8z"/>
</svg>
